<mxfile host="app.diagrams.net" modified="2024-03-05T00:01:08.783Z" agent="Mozilla/5.0 (Windows NT 6.1) AppleWebKit/537.36 (KHTML, like Gecko) Chrome/97.0.4692.99 Safari/537.36" etag="DnzTpngKd12iZq07iqr5" version="24.0.1" type="device">
  <diagram id="C5RBs43oDa-KdzZeNtuy" name="Page-1">
    <mxGraphModel dx="1707" dy="452" grid="1" gridSize="10" guides="1" tooltips="1" connect="1" arrows="1" fold="1" page="1" pageScale="1" pageWidth="827" pageHeight="1169" math="0" shadow="0">
      <root>
        <mxCell id="WIyWlLk6GJQsqaUBKTNV-0" />
        <mxCell id="WIyWlLk6GJQsqaUBKTNV-1" parent="WIyWlLk6GJQsqaUBKTNV-0" />
        <mxCell id="OxN-Xx4dsnYel7XNfbB_-15" value="" style="edgeStyle=orthogonalEdgeStyle;rounded=0;orthogonalLoop=1;jettySize=auto;html=1;" edge="1" parent="WIyWlLk6GJQsqaUBKTNV-1" source="WIyWlLk6GJQsqaUBKTNV-3" target="OxN-Xx4dsnYel7XNfbB_-14">
          <mxGeometry relative="1" as="geometry" />
        </mxCell>
        <mxCell id="WIyWlLk6GJQsqaUBKTNV-3" value="Сайт/телефон" style="rounded=1;whiteSpace=wrap;html=1;fontSize=15;glass=0;strokeWidth=1;shadow=0;" parent="WIyWlLk6GJQsqaUBKTNV-1" vertex="1">
          <mxGeometry x="160" y="470" width="120" height="40" as="geometry" />
        </mxCell>
        <mxCell id="OxN-Xx4dsnYel7XNfbB_-18" value="" style="edgeStyle=orthogonalEdgeStyle;rounded=0;orthogonalLoop=1;jettySize=auto;html=1;" edge="1" parent="WIyWlLk6GJQsqaUBKTNV-1" source="WIyWlLk6GJQsqaUBKTNV-11" target="OxN-Xx4dsnYel7XNfbB_-16">
          <mxGeometry relative="1" as="geometry" />
        </mxCell>
        <mxCell id="WIyWlLk6GJQsqaUBKTNV-11" value="Магазин" style="rounded=1;whiteSpace=wrap;html=1;fontSize=15;glass=0;strokeWidth=1;shadow=0;" parent="WIyWlLk6GJQsqaUBKTNV-1" vertex="1">
          <mxGeometry x="160" y="1030" width="120" height="40" as="geometry" />
        </mxCell>
        <mxCell id="OxN-Xx4dsnYel7XNfbB_-2" value="" style="edgeStyle=orthogonalEdgeStyle;rounded=0;orthogonalLoop=1;jettySize=auto;html=1;" edge="1" parent="WIyWlLk6GJQsqaUBKTNV-1">
          <mxGeometry relative="1" as="geometry">
            <mxPoint x="80" y="823.0000000000001" as="sourcePoint" />
            <mxPoint x="110" y="823" as="targetPoint" />
          </mxGeometry>
        </mxCell>
        <mxCell id="OxN-Xx4dsnYel7XNfbB_-4" value="" style="strokeWidth=2;html=1;shape=mxgraph.flowchart.annotation_1;align=left;pointerEvents=1;" vertex="1" parent="WIyWlLk6GJQsqaUBKTNV-1">
          <mxGeometry x="110" y="490" width="50" height="560" as="geometry" />
        </mxCell>
        <mxCell id="OxN-Xx4dsnYel7XNfbB_-9" value="" style="endArrow=classic;startArrow=classic;html=1;rounded=0;entryX=0.5;entryY=1;entryDx=0;entryDy=0;exitX=0.436;exitY=0.011;exitDx=0;exitDy=0;exitPerimeter=0;" edge="1" parent="WIyWlLk6GJQsqaUBKTNV-1" source="OxN-Xx4dsnYel7XNfbB_-73" target="WIyWlLk6GJQsqaUBKTNV-3">
          <mxGeometry width="50" height="50" relative="1" as="geometry">
            <mxPoint x="220" y="700" as="sourcePoint" />
            <mxPoint x="470" y="660" as="targetPoint" />
            <Array as="points">
              <mxPoint x="220" y="590" />
            </Array>
          </mxGeometry>
        </mxCell>
        <mxCell id="OxN-Xx4dsnYel7XNfbB_-11" value="" style="endArrow=classic;startArrow=classic;html=1;rounded=0;entryX=0.436;entryY=0.994;entryDx=0;entryDy=0;exitX=0.5;exitY=0;exitDx=0;exitDy=0;exitPerimeter=0;entryPerimeter=0;" edge="1" parent="WIyWlLk6GJQsqaUBKTNV-1" source="WIyWlLk6GJQsqaUBKTNV-11" target="OxN-Xx4dsnYel7XNfbB_-73">
          <mxGeometry width="50" height="50" relative="1" as="geometry">
            <mxPoint x="220" y="1020" as="sourcePoint" />
            <mxPoint x="220" y="851.5" as="targetPoint" />
          </mxGeometry>
        </mxCell>
        <mxCell id="OxN-Xx4dsnYel7XNfbB_-13" value="&lt;h1&gt;&lt;font style=&quot;font-size: 40px;&quot; color=&quot;#ff0000&quot;&gt;СХЕМА ПРОХОЖДЕНИЯ ЗАКАЗА ОТ ПОСТУПЛЕНИЯ ДО ПОЛУЧЕНИЯ КЛИЕНТОМ&lt;/font&gt;&lt;/h1&gt;" style="text;html=1;align=center;verticalAlign=middle;whiteSpace=wrap;rounded=0;fillColor=#f5f5f5;strokeColor=#666666;fontColor=#333333;shadow=1;" vertex="1" parent="WIyWlLk6GJQsqaUBKTNV-1">
          <mxGeometry x="30" y="50" width="1290" height="180" as="geometry" />
        </mxCell>
        <mxCell id="OxN-Xx4dsnYel7XNfbB_-14" value="Обработка заказа отделом продаж" style="whiteSpace=wrap;html=1;fontSize=15;rounded=1;glass=0;strokeWidth=1;shadow=0;" vertex="1" parent="WIyWlLk6GJQsqaUBKTNV-1">
          <mxGeometry x="360" y="460" width="120" height="60" as="geometry" />
        </mxCell>
        <mxCell id="OxN-Xx4dsnYel7XNfbB_-20" value="" style="edgeStyle=orthogonalEdgeStyle;rounded=0;orthogonalLoop=1;jettySize=auto;html=1;" edge="1" parent="WIyWlLk6GJQsqaUBKTNV-1" source="OxN-Xx4dsnYel7XNfbB_-16" target="OxN-Xx4dsnYel7XNfbB_-19">
          <mxGeometry relative="1" as="geometry" />
        </mxCell>
        <mxCell id="OxN-Xx4dsnYel7XNfbB_-16" value="Обработка заказа отделом продаж" style="whiteSpace=wrap;html=1;fontSize=15;rounded=1;glass=0;strokeWidth=1;shadow=0;" vertex="1" parent="WIyWlLk6GJQsqaUBKTNV-1">
          <mxGeometry x="360" y="1020" width="120" height="60" as="geometry" />
        </mxCell>
        <mxCell id="OxN-Xx4dsnYel7XNfbB_-22" value="" style="edgeStyle=orthogonalEdgeStyle;rounded=0;orthogonalLoop=1;jettySize=auto;html=1;" edge="1" parent="WIyWlLk6GJQsqaUBKTNV-1" source="OxN-Xx4dsnYel7XNfbB_-19" target="OxN-Xx4dsnYel7XNfbB_-21">
          <mxGeometry relative="1" as="geometry" />
        </mxCell>
        <mxCell id="OxN-Xx4dsnYel7XNfbB_-26" value="" style="edgeStyle=orthogonalEdgeStyle;rounded=0;orthogonalLoop=1;jettySize=auto;html=1;entryX=1;entryY=0.5;entryDx=0;entryDy=0;" edge="1" parent="WIyWlLk6GJQsqaUBKTNV-1" source="OxN-Xx4dsnYel7XNfbB_-19" target="OxN-Xx4dsnYel7XNfbB_-23">
          <mxGeometry relative="1" as="geometry" />
        </mxCell>
        <mxCell id="OxN-Xx4dsnYel7XNfbB_-19" value="Оплата" style="whiteSpace=wrap;html=1;fontSize=15;rounded=1;glass=0;strokeWidth=1;shadow=0;" vertex="1" parent="WIyWlLk6GJQsqaUBKTNV-1">
          <mxGeometry x="560" y="1020" width="120" height="60" as="geometry" />
        </mxCell>
        <mxCell id="OxN-Xx4dsnYel7XNfbB_-21" value="Выдача заказа" style="whiteSpace=wrap;html=1;fontSize=15;rounded=1;glass=0;strokeWidth=1;shadow=0;" vertex="1" parent="WIyWlLk6GJQsqaUBKTNV-1">
          <mxGeometry x="760" y="1020" width="120" height="60" as="geometry" />
        </mxCell>
        <mxCell id="OxN-Xx4dsnYel7XNfbB_-23" value="Отмена" style="whiteSpace=wrap;html=1;fontSize=15;rounded=1;glass=0;strokeWidth=1;shadow=0;" vertex="1" parent="WIyWlLk6GJQsqaUBKTNV-1">
          <mxGeometry x="454" y="1120" width="120" height="60" as="geometry" />
        </mxCell>
        <mxCell id="OxN-Xx4dsnYel7XNfbB_-30" value="" style="endArrow=classic;html=1;rounded=0;exitX=0.5;exitY=1;exitDx=0;exitDy=0;entryX=0.05;entryY=0.5;entryDx=0;entryDy=0;entryPerimeter=0;" edge="1" parent="WIyWlLk6GJQsqaUBKTNV-1" source="OxN-Xx4dsnYel7XNfbB_-16" target="OxN-Xx4dsnYel7XNfbB_-23">
          <mxGeometry width="50" height="50" relative="1" as="geometry">
            <mxPoint x="420" y="970" as="sourcePoint" />
            <mxPoint x="450" y="1150" as="targetPoint" />
            <Array as="points">
              <mxPoint x="420" y="1150" />
            </Array>
          </mxGeometry>
        </mxCell>
        <mxCell id="OxN-Xx4dsnYel7XNfbB_-37" value="" style="endArrow=classic;startArrow=classic;html=1;rounded=0;entryX=-0.018;entryY=0.402;entryDx=0;entryDy=0;entryPerimeter=0;exitX=1;exitY=0.395;exitDx=0;exitDy=0;exitPerimeter=0;" edge="1" parent="WIyWlLk6GJQsqaUBKTNV-1" source="OxN-Xx4dsnYel7XNfbB_-73" target="OxN-Xx4dsnYel7XNfbB_-75">
          <mxGeometry width="50" height="50" relative="1" as="geometry">
            <mxPoint x="280" y="822" as="sourcePoint" />
            <mxPoint x="440.24000000000024" y="821.5" as="targetPoint" />
          </mxGeometry>
        </mxCell>
        <mxCell id="OxN-Xx4dsnYel7XNfbB_-38" value="" style="endArrow=classic;startArrow=classic;html=1;rounded=0;exitX=0.997;exitY=0.39;exitDx=0;exitDy=0;exitPerimeter=0;entryX=0.027;entryY=0.401;entryDx=0;entryDy=0;entryPerimeter=0;" edge="1" parent="WIyWlLk6GJQsqaUBKTNV-1" source="OxN-Xx4dsnYel7XNfbB_-75" target="OxN-Xx4dsnYel7XNfbB_-76">
          <mxGeometry width="50" height="50" relative="1" as="geometry">
            <mxPoint x="560" y="821.5" as="sourcePoint" />
            <mxPoint x="700" y="822" as="targetPoint" />
          </mxGeometry>
        </mxCell>
        <mxCell id="OxN-Xx4dsnYel7XNfbB_-39" value="" style="endArrow=classic;startArrow=classic;html=1;rounded=0;entryX=0.5;entryY=1;entryDx=0;entryDy=0;" edge="1" parent="WIyWlLk6GJQsqaUBKTNV-1">
          <mxGeometry width="50" height="50" relative="1" as="geometry">
            <mxPoint x="500" y="780" as="sourcePoint" />
            <mxPoint x="500" y="740" as="targetPoint" />
          </mxGeometry>
        </mxCell>
        <mxCell id="OxN-Xx4dsnYel7XNfbB_-41" value="" style="endArrow=classic;startArrow=classic;html=1;rounded=0;entryX=0.5;entryY=1;entryDx=0;entryDy=0;entryPerimeter=0;exitX=0.725;exitY=0.022;exitDx=0;exitDy=0;exitPerimeter=0;" edge="1" parent="WIyWlLk6GJQsqaUBKTNV-1" source="OxN-Xx4dsnYel7XNfbB_-73" target="OxN-Xx4dsnYel7XNfbB_-14">
          <mxGeometry width="50" height="50" relative="1" as="geometry">
            <mxPoint x="270" y="740" as="sourcePoint" />
            <mxPoint x="470" y="740" as="targetPoint" />
          </mxGeometry>
        </mxCell>
        <mxCell id="OxN-Xx4dsnYel7XNfbB_-42" value="" style="endArrow=classic;startArrow=classic;html=1;rounded=0;exitX=0.5;exitY=0;exitDx=0;exitDy=0;entryX=0.853;entryY=0.971;entryDx=0;entryDy=0;entryPerimeter=0;" edge="1" parent="WIyWlLk6GJQsqaUBKTNV-1" source="OxN-Xx4dsnYel7XNfbB_-16" target="OxN-Xx4dsnYel7XNfbB_-73">
          <mxGeometry width="50" height="50" relative="1" as="geometry">
            <mxPoint x="420" y="900" as="sourcePoint" />
            <mxPoint x="240.04000000000042" y="849.9999999999998" as="targetPoint" />
          </mxGeometry>
        </mxCell>
        <mxCell id="OxN-Xx4dsnYel7XNfbB_-43" value="" style="endArrow=classic;startArrow=classic;html=1;rounded=0;entryX=0.409;entryY=0.985;entryDx=0;entryDy=0;exitX=0.61;exitY=0.016;exitDx=0;exitDy=0;exitPerimeter=0;entryPerimeter=0;" edge="1" parent="WIyWlLk6GJQsqaUBKTNV-1" source="OxN-Xx4dsnYel7XNfbB_-16" target="OxN-Xx4dsnYel7XNfbB_-75">
          <mxGeometry width="50" height="50" relative="1" as="geometry">
            <mxPoint x="420" y="900" as="sourcePoint" />
            <mxPoint x="500" y="851.5" as="targetPoint" />
          </mxGeometry>
        </mxCell>
        <mxCell id="OxN-Xx4dsnYel7XNfbB_-44" value="" style="endArrow=classic;startArrow=classic;html=1;rounded=0;entryX=0.618;entryY=1.006;entryDx=0;entryDy=0;exitX=0.5;exitY=0;exitDx=0;exitDy=0;entryPerimeter=0;" edge="1" parent="WIyWlLk6GJQsqaUBKTNV-1" source="OxN-Xx4dsnYel7XNfbB_-21" target="OxN-Xx4dsnYel7XNfbB_-76">
          <mxGeometry width="50" height="50" relative="1" as="geometry">
            <mxPoint x="420" y="900" as="sourcePoint" />
            <mxPoint x="780" y="851.5" as="targetPoint" />
          </mxGeometry>
        </mxCell>
        <mxCell id="OxN-Xx4dsnYel7XNfbB_-45" value="" style="endArrow=classic;startArrow=classic;html=1;rounded=0;entryX=0.987;entryY=0.626;entryDx=0;entryDy=0;exitX=0.3;exitY=-0.023;exitDx=0;exitDy=0;exitPerimeter=0;entryPerimeter=0;" edge="1" parent="WIyWlLk6GJQsqaUBKTNV-1" source="OxN-Xx4dsnYel7XNfbB_-76" target="OxN-Xx4dsnYel7XNfbB_-77">
          <mxGeometry width="50" height="50" relative="1" as="geometry">
            <mxPoint x="780" y="791.5" as="sourcePoint" />
            <mxPoint x="560" y="710" as="targetPoint" />
          </mxGeometry>
        </mxCell>
        <mxCell id="OxN-Xx4dsnYel7XNfbB_-46" value="" style="endArrow=classic;startArrow=classic;html=1;rounded=0;entryX=0;entryY=0.5;entryDx=0;entryDy=0;exitX=1;exitY=0.15;exitDx=0;exitDy=0;exitPerimeter=0;" edge="1" parent="WIyWlLk6GJQsqaUBKTNV-1" source="OxN-Xx4dsnYel7XNfbB_-73">
          <mxGeometry width="50" height="50" relative="1" as="geometry">
            <mxPoint x="300" y="800" as="sourcePoint" />
            <mxPoint x="440" y="710" as="targetPoint" />
          </mxGeometry>
        </mxCell>
        <mxCell id="OxN-Xx4dsnYel7XNfbB_-65" value="Оплата" style="whiteSpace=wrap;html=1;fontSize=15;rounded=1;glass=0;strokeWidth=1;shadow=0;" vertex="1" parent="WIyWlLk6GJQsqaUBKTNV-1">
          <mxGeometry x="530" y="410" width="140" height="60" as="geometry" />
        </mxCell>
        <mxCell id="OxN-Xx4dsnYel7XNfbB_-69" value="Оплата после получения заказа" style="rounded=1;whiteSpace=wrap;html=1;fontSize=15;" vertex="1" parent="WIyWlLk6GJQsqaUBKTNV-1">
          <mxGeometry x="530" y="500" width="145" height="70" as="geometry" />
        </mxCell>
        <mxCell id="OxN-Xx4dsnYel7XNfbB_-71" value="" style="strokeWidth=2;html=1;shape=mxgraph.flowchart.annotation_2;align=left;labelPosition=right;pointerEvents=1;" vertex="1" parent="WIyWlLk6GJQsqaUBKTNV-1">
          <mxGeometry x="480" y="440" width="50" height="100" as="geometry" />
        </mxCell>
        <mxCell id="OxN-Xx4dsnYel7XNfbB_-72" value="" style="strokeWidth=2;html=1;shape=mxgraph.flowchart.start_2;whiteSpace=wrap;" vertex="1" parent="WIyWlLk6GJQsqaUBKTNV-1">
          <mxGeometry y="782.25" width="80" height="78.5" as="geometry" />
        </mxCell>
        <mxCell id="OxN-Xx4dsnYel7XNfbB_-73" value="&lt;h1&gt;CRM&lt;/h1&gt;" style="strokeWidth=2;html=1;shape=mxgraph.flowchart.database;whiteSpace=wrap;" vertex="1" parent="WIyWlLk6GJQsqaUBKTNV-1">
          <mxGeometry x="170" y="782.25" width="110" height="99.25" as="geometry" />
        </mxCell>
        <mxCell id="OxN-Xx4dsnYel7XNfbB_-75" value="&lt;h1&gt;SRM&lt;/h1&gt;" style="strokeWidth=2;html=1;shape=mxgraph.flowchart.database;whiteSpace=wrap;" vertex="1" parent="WIyWlLk6GJQsqaUBKTNV-1">
          <mxGeometry x="440" y="782.25" width="110" height="99.25" as="geometry" />
        </mxCell>
        <mxCell id="OxN-Xx4dsnYel7XNfbB_-76" value="&lt;h1&gt;WMS&lt;/h1&gt;" style="strokeWidth=2;html=1;shape=mxgraph.flowchart.database;whiteSpace=wrap;direction=east;" vertex="1" parent="WIyWlLk6GJQsqaUBKTNV-1">
          <mxGeometry x="717" y="782.25" width="110" height="99.25" as="geometry" />
        </mxCell>
        <mxCell id="OxN-Xx4dsnYel7XNfbB_-77" value="&lt;h1&gt;ERP&lt;/h1&gt;" style="strokeWidth=2;html=1;shape=mxgraph.flowchart.database;whiteSpace=wrap;" vertex="1" parent="WIyWlLk6GJQsqaUBKTNV-1">
          <mxGeometry x="440" y="640" width="110" height="99.25" as="geometry" />
        </mxCell>
        <mxCell id="OxN-Xx4dsnYel7XNfbB_-78" value="&lt;font style=&quot;font-size: 15px;&quot;&gt;Отмена&lt;/font&gt;" style="rounded=1;whiteSpace=wrap;html=1;" vertex="1" parent="WIyWlLk6GJQsqaUBKTNV-1">
          <mxGeometry x="530" y="270" width="120" height="60" as="geometry" />
        </mxCell>
        <mxCell id="OxN-Xx4dsnYel7XNfbB_-80" value="" style="endArrow=classic;html=1;rounded=0;exitX=0.5;exitY=0;exitDx=0;exitDy=0;entryX=0.25;entryY=1;entryDx=0;entryDy=0;" edge="1" parent="WIyWlLk6GJQsqaUBKTNV-1" source="OxN-Xx4dsnYel7XNfbB_-14" target="OxN-Xx4dsnYel7XNfbB_-78">
          <mxGeometry width="50" height="50" relative="1" as="geometry">
            <mxPoint x="630" y="540" as="sourcePoint" />
            <mxPoint x="680" y="490" as="targetPoint" />
          </mxGeometry>
        </mxCell>
        <mxCell id="OxN-Xx4dsnYel7XNfbB_-81" value="" style="strokeWidth=2;html=1;shape=mxgraph.flowchart.annotation_2;align=left;labelPosition=right;pointerEvents=1;direction=west;" vertex="1" parent="WIyWlLk6GJQsqaUBKTNV-1">
          <mxGeometry x="675" y="440" width="50" height="100" as="geometry" />
        </mxCell>
        <mxCell id="OxN-Xx4dsnYel7XNfbB_-105" value="" style="edgeStyle=orthogonalEdgeStyle;rounded=0;orthogonalLoop=1;jettySize=auto;html=1;" edge="1" parent="WIyWlLk6GJQsqaUBKTNV-1" source="OxN-Xx4dsnYel7XNfbB_-84">
          <mxGeometry relative="1" as="geometry">
            <mxPoint x="930" y="490" as="targetPoint" />
          </mxGeometry>
        </mxCell>
        <mxCell id="OxN-Xx4dsnYel7XNfbB_-84" value="&lt;font style=&quot;font-size: 15px;&quot;&gt;Обработка заказа отделом закупок&lt;/font&gt;" style="rounded=1;whiteSpace=wrap;html=1;" vertex="1" parent="WIyWlLk6GJQsqaUBKTNV-1">
          <mxGeometry x="725" y="460" width="155" height="60" as="geometry" />
        </mxCell>
        <mxCell id="OxN-Xx4dsnYel7XNfbB_-85" value="" style="endArrow=classic;html=1;rounded=0;entryX=0.75;entryY=1;entryDx=0;entryDy=0;exitX=0.5;exitY=0;exitDx=0;exitDy=0;" edge="1" parent="WIyWlLk6GJQsqaUBKTNV-1" source="OxN-Xx4dsnYel7XNfbB_-84" target="OxN-Xx4dsnYel7XNfbB_-78">
          <mxGeometry width="50" height="50" relative="1" as="geometry">
            <mxPoint x="630" y="490" as="sourcePoint" />
            <mxPoint x="680" y="440" as="targetPoint" />
          </mxGeometry>
        </mxCell>
        <mxCell id="OxN-Xx4dsnYel7XNfbB_-86" value="" style="endArrow=classic;startArrow=classic;html=1;rounded=0;exitX=1;exitY=0.15;exitDx=0;exitDy=0;exitPerimeter=0;entryX=0.5;entryY=1;entryDx=0;entryDy=0;" edge="1" parent="WIyWlLk6GJQsqaUBKTNV-1" source="OxN-Xx4dsnYel7XNfbB_-75" target="OxN-Xx4dsnYel7XNfbB_-84">
          <mxGeometry width="50" height="50" relative="1" as="geometry">
            <mxPoint x="630" y="650" as="sourcePoint" />
            <mxPoint x="680" y="600" as="targetPoint" />
          </mxGeometry>
        </mxCell>
        <mxCell id="OxN-Xx4dsnYel7XNfbB_-91" value="" style="edgeStyle=orthogonalEdgeStyle;rounded=0;orthogonalLoop=1;jettySize=auto;html=1;" edge="1" parent="WIyWlLk6GJQsqaUBKTNV-1" source="OxN-Xx4dsnYel7XNfbB_-88" target="OxN-Xx4dsnYel7XNfbB_-90">
          <mxGeometry relative="1" as="geometry" />
        </mxCell>
        <mxCell id="OxN-Xx4dsnYel7XNfbB_-88" value="&lt;font style=&quot;font-size: 15px;&quot;&gt;Курьерская доставка неоплаченного заказа&lt;/font&gt;" style="rounded=1;whiteSpace=wrap;html=1;" vertex="1" parent="WIyWlLk6GJQsqaUBKTNV-1">
          <mxGeometry x="890" y="350" width="150" height="70" as="geometry" />
        </mxCell>
        <mxCell id="OxN-Xx4dsnYel7XNfbB_-89" value="&lt;font style=&quot;font-size: 15px;&quot;&gt;Курьерская доставка заказа&lt;/font&gt;" style="rounded=1;whiteSpace=wrap;html=1;" vertex="1" parent="WIyWlLk6GJQsqaUBKTNV-1">
          <mxGeometry x="1040" y="452.5" width="150" height="70" as="geometry" />
        </mxCell>
        <mxCell id="OxN-Xx4dsnYel7XNfbB_-90" value="&lt;font style=&quot;font-size: 15px;&quot;&gt;Оплата&lt;/font&gt;" style="whiteSpace=wrap;html=1;rounded=1;" vertex="1" parent="WIyWlLk6GJQsqaUBKTNV-1">
          <mxGeometry x="1070" y="355" width="120" height="60" as="geometry" />
        </mxCell>
        <mxCell id="OxN-Xx4dsnYel7XNfbB_-101" value="" style="endArrow=classic;startArrow=classic;html=1;rounded=0;entryX=0.554;entryY=1.055;entryDx=0;entryDy=0;entryPerimeter=0;exitX=0.664;exitY=-0.023;exitDx=0;exitDy=0;exitPerimeter=0;" edge="1" parent="WIyWlLk6GJQsqaUBKTNV-1" source="OxN-Xx4dsnYel7XNfbB_-76" target="OxN-Xx4dsnYel7XNfbB_-84">
          <mxGeometry width="50" height="50" relative="1" as="geometry">
            <mxPoint x="740" y="690" as="sourcePoint" />
            <mxPoint x="790" y="640" as="targetPoint" />
          </mxGeometry>
        </mxCell>
        <mxCell id="OxN-Xx4dsnYel7XNfbB_-106" value="" style="edgeStyle=orthogonalEdgeStyle;rounded=0;orthogonalLoop=1;jettySize=auto;html=1;" edge="1" parent="WIyWlLk6GJQsqaUBKTNV-1" source="OxN-Xx4dsnYel7XNfbB_-104" target="OxN-Xx4dsnYel7XNfbB_-88">
          <mxGeometry relative="1" as="geometry" />
        </mxCell>
        <mxCell id="OxN-Xx4dsnYel7XNfbB_-107" value="" style="edgeStyle=orthogonalEdgeStyle;rounded=0;orthogonalLoop=1;jettySize=auto;html=1;" edge="1" parent="WIyWlLk6GJQsqaUBKTNV-1" source="OxN-Xx4dsnYel7XNfbB_-104" target="OxN-Xx4dsnYel7XNfbB_-89">
          <mxGeometry relative="1" as="geometry" />
        </mxCell>
        <mxCell id="OxN-Xx4dsnYel7XNfbB_-104" value="" style="rhombus;whiteSpace=wrap;html=1;rounded=1;" vertex="1" parent="WIyWlLk6GJQsqaUBKTNV-1">
          <mxGeometry x="930" y="450" width="70" height="75" as="geometry" />
        </mxCell>
        <mxCell id="OxN-Xx4dsnYel7XNfbB_-109" value="" style="endArrow=classic;html=1;rounded=0;exitX=0.5;exitY=1;exitDx=0;exitDy=0;entryX=0.75;entryY=0;entryDx=0;entryDy=0;" edge="1" parent="WIyWlLk6GJQsqaUBKTNV-1" source="OxN-Xx4dsnYel7XNfbB_-104" target="OxN-Xx4dsnYel7XNfbB_-21">
          <mxGeometry width="50" height="50" relative="1" as="geometry">
            <mxPoint x="740" y="770" as="sourcePoint" />
            <mxPoint x="940" y="810" as="targetPoint" />
          </mxGeometry>
        </mxCell>
        <mxCell id="OxN-Xx4dsnYel7XNfbB_-110" value="&lt;font style=&quot;font-size: 15px;&quot;&gt;Возврат&lt;/font&gt;" style="rounded=1;whiteSpace=wrap;html=1;" vertex="1" parent="WIyWlLk6GJQsqaUBKTNV-1">
          <mxGeometry x="1260" y="782.25" width="120" height="60" as="geometry" />
        </mxCell>
        <mxCell id="OxN-Xx4dsnYel7XNfbB_-111" value="" style="endArrow=classic;html=1;rounded=0;entryX=0.5;entryY=1;entryDx=0;entryDy=0;exitX=1;exitY=0.5;exitDx=0;exitDy=0;" edge="1" parent="WIyWlLk6GJQsqaUBKTNV-1" source="OxN-Xx4dsnYel7XNfbB_-21" target="OxN-Xx4dsnYel7XNfbB_-110">
          <mxGeometry width="50" height="50" relative="1" as="geometry">
            <mxPoint x="900" y="840" as="sourcePoint" />
            <mxPoint x="950" y="790" as="targetPoint" />
          </mxGeometry>
        </mxCell>
        <mxCell id="OxN-Xx4dsnYel7XNfbB_-112" value="" style="endArrow=classic;html=1;rounded=0;entryX=0.35;entryY=0.029;entryDx=0;entryDy=0;entryPerimeter=0;exitX=1;exitY=0.5;exitDx=0;exitDy=0;" edge="1" parent="WIyWlLk6GJQsqaUBKTNV-1" source="OxN-Xx4dsnYel7XNfbB_-89" target="OxN-Xx4dsnYel7XNfbB_-110">
          <mxGeometry width="50" height="50" relative="1" as="geometry">
            <mxPoint x="900" y="630" as="sourcePoint" />
            <mxPoint x="950" y="580" as="targetPoint" />
          </mxGeometry>
        </mxCell>
        <mxCell id="OxN-Xx4dsnYel7XNfbB_-113" value="" style="endArrow=classic;html=1;rounded=0;entryX=0.75;entryY=0;entryDx=0;entryDy=0;exitX=1;exitY=0.5;exitDx=0;exitDy=0;" edge="1" parent="WIyWlLk6GJQsqaUBKTNV-1" source="OxN-Xx4dsnYel7XNfbB_-90" target="OxN-Xx4dsnYel7XNfbB_-110">
          <mxGeometry width="50" height="50" relative="1" as="geometry">
            <mxPoint x="900" y="630" as="sourcePoint" />
            <mxPoint x="950" y="580" as="targetPoint" />
          </mxGeometry>
        </mxCell>
      </root>
    </mxGraphModel>
  </diagram>
</mxfile>
